<?xml version="1.0" encoding="UTF-8" standalone="no"?>
<svg
   xmlns:dc="http://purl.org/dc/elements/1.1/"
   xmlns:cc="http://creativecommons.org/ns#"
   xmlns:rdf="http://www.w3.org/1999/02/22-rdf-syntax-ns#"
   xmlns:svg="http://www.w3.org/2000/svg"
   xmlns="http://www.w3.org/2000/svg"
   xmlns:sodipodi="http://sodipodi.sourceforge.net/DTD/sodipodi-0.dtd"
   xmlns:inkscape="http://www.inkscape.org/namespaces/inkscape"
   inkscape:version="1.0 (4035a4fb49, 2020-05-01)"
   sodipodi:docname="logo.svg"
   viewBox="0 0 511.99998 511.99998"
   height="512"
   width="512"
   xml:space="preserve"
   id="svg2"
   version="1.1"><metadata
     id="metadata8"><rdf:RDF><cc:Work
         rdf:about=""><dc:format>image/svg+xml</dc:format><dc:type
           rdf:resource="http://purl.org/dc/dcmitype/StillImage" /><dc:title></dc:title></cc:Work></rdf:RDF></metadata><defs
     id="defs6" /><sodipodi:namedview
     inkscape:current-layer="g10"
     inkscape:window-maximized="1"
     inkscape:window-y="0"
     inkscape:window-x="0"
     inkscape:cy="533.33337"
     inkscape:cx="82.810863"
     inkscape:zoom="0.68906245"
     showgrid="false"
     id="namedview4"
     inkscape:window-height="1025"
     inkscape:window-width="1920"
     inkscape:pageshadow="2"
     inkscape:pageopacity="0"
     guidetolerance="10"
     gridtolerance="10"
     objecttolerance="10"
     borderopacity="1"
     bordercolor="#666666"
     pagecolor="#ffffff" /><g
     transform="matrix(1.3333333,0,0,-1.3333333,0,1066.6667)"
     inkscape:label="ink_ext_XXXXXX"
     inkscape:groupmode="layer"
     id="g10"><g
       transform="matrix(2.0553225,0,0,2.0553225,-616.89066,-693.33608)"
       id="g1162"><path
         id="path30"
         style="fill:#fbc60e;fill-opacity:1;fill-rule:evenodd;stroke:none;stroke-width:0.1"
         d="m 336.065,661.751 c -21.885,-17.1 -35.922,-43.708 -35.922,-73.626 h 40.58 c 0,18.726 9.756,35.171 24.418,44.55 l -29.076,29.076" /><path
         id="path32"
         style="fill:#ef3540;fill-opacity:1;fill-rule:evenodd;stroke:none;stroke-width:0.1"
         d="m 486.975,588.125 c 0,29.918 -14.069,56.526 -35.924,73.626 l -29.106,-29.076 c 14.694,-9.379 24.42,-25.824 24.42,-44.55 h 40.61" /><path
         id="path34"
         style="fill:#96d223;fill-opacity:1;fill-rule:evenodd;stroke:none;stroke-width:0.1"
         d="m 447.834,664.19 c -15.32,10.912 -34.049,17.351 -54.276,17.351 -20.259,0 -38.986,-6.439 -54.273,-17.351 l 29.418,-29.451 c 7.409,3.969 15.853,6.189 24.855,6.189 8.973,0 17.446,-2.22 24.827,-6.189 l 29.449,29.451" /><path
         id="path36"
         style="fill:#39373a;fill-opacity:1;fill-rule:evenodd;stroke:none;stroke-width:0.1"
         d="m 393.558,587.78 c 2.065,-3.125 6.287,-3.939 9.413,-1.874 l 30.199,27.198 -37.766,-15.914 v 0 c -3.096,-2.093 -3.937,-6.314 -1.846,-9.41 v 0" /></g></g></svg>
